<svg width="256" height="256" viewBox="0 0 256 256" fill="none" xmlns="http://www.w3.org/2000/svg">
  <rect width="256" height="256" rx="64" fill="#2563EB"/>
  <rect x="52" y="60" width="152" height="144" rx="28" fill="white"/>
  <rect x="52" y="84" width="152" height="24" fill="#DBEAFE"/>
  <rect x="84" y="40" width="16" height="40" rx="8" fill="#14B8A6"/>
  <rect x="156" y="40" width="16" height="40" rx="8" fill="#14B8A6"/>
  <rect x="78" y="128" width="100" height="16" rx="8" fill="#BFDBFE"/>
  <rect x="78" y="156" width="72" height="16" rx="8" fill="#BFDBFE"/>
  <path d="M196 156C196 174.778 180.778 190 162 190C143.222 190 128 174.778 128 156C128 137.222 143.222 122 162 122C180.778 122 196 137.222 196 156Z" fill="#14B8A6"/>
  <rect x="154" y="137" width="16" height="28" rx="8" fill="white"/>
  <path d="M148 158C148 165.732 154.268 172 162 172C169.732 172 176 165.732 176 158" stroke="white" stroke-width="8" stroke-linecap="round"/>
  <path d="M162 172V182" stroke="white" stroke-width="8" stroke-linecap="round"/>
  <path d="M152 182H172" stroke="white" stroke-width="8" stroke-linecap="round"/>
</svg>
